<svg xmlns="http://www.w3.org/2000/svg" xmlns:xlink="http://www.w3.org/1999/xlink" viewBox="0 0 110.13 220.96"><defs><linearGradient id="a" x1="-1034.96" y1="76.31" x2="-1034.96" y2="37.39" gradientTransform="matrix(-1, 0, 0, 1, -1033.08, 0)" gradientUnits="userSpaceOnUse"><stop offset="0" stop-color="gray"/><stop offset="0.01" stop-color="#727272"/><stop offset="0.06" stop-color="#4f4f4f"/><stop offset="0.1" stop-color="#323232"/><stop offset="0.15" stop-color="#1c1c1c"/><stop offset="0.2" stop-color="#0c0c0c"/><stop offset="0.26" stop-color="#030303"/><stop offset="0.34"/><stop offset="0.7"/><stop offset="0.75" stop-color="#050505"/><stop offset="0.8" stop-color="#131313"/><stop offset="0.86" stop-color="#2a2a2a"/><stop offset="0.92" stop-color="#4b4b4b"/><stop offset="0.98" stop-color="#747474"/><stop offset="1" stop-color="gray"/></linearGradient><linearGradient id="b" x1="-1034.96" y1="96.75" x2="-1034.96" y2="80.79" xlink:href="#a"/><linearGradient id="c" x1="-1145.86" y1="110.48" x2="-1032.02" y2="110.48" gradientTransform="matrix(-1, 0, 0, 1, -1033.08, 0)" gradientUnits="userSpaceOnUse"><stop offset="0" stop-color="#333"/><stop offset="0" stop-color="#323232"/><stop offset="0.03" stop-color="#1c1c1c"/><stop offset="0.06" stop-color="#0c0c0c"/><stop offset="0.1" stop-color="#030303"/><stop offset="0.15"/><stop offset="0.87"/><stop offset="0.91" stop-color="#050505"/><stop offset="0.95" stop-color="#131313"/><stop offset="0.99" stop-color="#2a2a2a"/><stop offset="1" stop-color="#333"/></linearGradient><linearGradient id="d" x1="-1088.67" y1="7.04" x2="-1088.67" y2="-0.79" gradientTransform="matrix(-1, 0, 0, 1, -1033.08, 0)" gradientUnits="userSpaceOnUse"><stop offset="0"/><stop offset="0.16" stop-color="#050505"/><stop offset="0.34" stop-color="#131313"/><stop offset="0.53" stop-color="#2a2a2a"/><stop offset="0.74" stop-color="#4b4b4b"/><stop offset="0.95" stop-color="#747474"/><stop offset="1" stop-color="gray"/></linearGradient><linearGradient id="e" x1="-2863.04" y1="-2335.01" x2="-2863.04" y2="-2342.84" gradientTransform="matrix(1, 0, 0, -1, 2918.63, -2121.15)" xlink:href="#d"/><linearGradient id="f" x1="1.32" y1="169.79" x2="106.61" y2="17.17" gradientUnits="userSpaceOnUse"><stop offset="0" stop-color="#fff"/><stop offset="0.03" stop-color="#ededed"/><stop offset="0.14" stop-color="#b6b6b6"/><stop offset="0.26" stop-color="#868686"/><stop offset="0.37" stop-color="#5d5d5d"/><stop offset="0.49" stop-color="#3b3b3b"/><stop offset="0.61" stop-color="#212121"/><stop offset="0.73" stop-color="#0f0f0f"/><stop offset="0.86" stop-color="#040404"/><stop offset="1"/></linearGradient><linearGradient id="g" x1="55.6" y1="-0.36" x2="55.6" y2="11.68" gradientUnits="userSpaceOnUse"><stop offset="0"/><stop offset="0.14" stop-color="#050505"/><stop offset="0.3" stop-color="#131313"/><stop offset="0.47" stop-color="#2a2a2a"/><stop offset="0.65" stop-color="#4b4b4b"/><stop offset="0.83" stop-color="#747474"/><stop offset="1" stop-color="#a1a1a1"/></linearGradient><linearGradient id="h" x1="38.01" y1="3.56" x2="38.01" y2="10.17" xlink:href="#g"/><linearGradient id="i" x1="72.97" y1="3.56" x2="72.97" y2="10.17" xlink:href="#g"/></defs><title>cellphone</title><g style="isolation:isolate"><rect y="37.39" width="3.76" height="38.92" rx="0.98" style="fill:url(#a)"/><rect y="80.79" width="3.76" height="15.96" rx="0.98" style="fill:url(#b)"/><rect x="1.05" width="109.09" height="220.96" rx="15.24" style="fill:url(#c)"/><path d="M17.56,1.15H93.62a15.23,15.23,0,0,1,15.23,15.24v2.18A15.23,15.23,0,0,0,93.62,3.33H17.56A15.23,15.23,0,0,0,2.33,18.57V16.39A15.23,15.23,0,0,1,17.56,1.15Z" style="mix-blend-mode:screen;fill:url(#d)"/><path d="M93.62,219.75H17.56A15.24,15.24,0,0,1,2.33,204.51v-2.18a15.23,15.23,0,0,0,15.23,15.24H93.62a15.23,15.23,0,0,0,15.23-15.24v2.18A15.24,15.24,0,0,1,93.62,219.75Z" style="mix-blend-mode:screen;fill:url(#e)"/><path d="M107.34,16.52V204.45A11.53,11.53,0,0,1,95.77,216H15.41A11.53,11.53,0,0,1,3.84,204.45V16.52A11.48,11.48,0,0,1,13.46,5.2,8.61,8.61,0,0,1,15.41,5H29.52a3.24,3.24,0,0,1,3.24,3.24A3.27,3.27,0,0,0,36,11.53H75.18a3.27,3.27,0,0,0,3.24-3.29A3.24,3.24,0,0,1,81.66,5H95.77A11.53,11.53,0,0,1,107.34,16.52Z" style="fill:#fff"/><path d="M107.34,16.52V163.09L13.46,5.2A8.61,8.61,0,0,1,15.41,5H29.52a3.24,3.24,0,0,1,3.24,3.24A3.27,3.27,0,0,0,36,11.53H75.18a3.27,3.27,0,0,0,3.24-3.29A3.24,3.24,0,0,1,81.66,5H95.77A11.53,11.53,0,0,1,107.34,16.52Z" style="mix-blend-mode:screen;fill:url(#f)"/><path d="M68,8.29H43.19a.69.69,0,0,1-.69-.69h0a.69.69,0,0,1,.69-.69H68a.69.69,0,0,1,.69.69h0A.69.69,0,0,1,68,8.29Z" style="fill:url(#g)"/><path d="M38,8.83a1.26,1.26,0,1,0-1.25-1.26A1.26,1.26,0,0,0,38,8.83Z" style="fill:url(#h)"/><path d="M73,8.83a1.26,1.26,0,1,0-1.25-1.26A1.26,1.26,0,0,0,73,8.83Z" style="fill:url(#i)"/></g></svg>