<?xml version="1.0" encoding="utf-8"?>
<!-- Generator: Adobe Illustrator 25.2.3, SVG Export Plug-In . SVG Version: 6.00 Build 0)  -->
<svg version="1.1" id="Layer_1" xmlns="http://www.w3.org/2000/svg" xmlns:xlink="http://www.w3.org/1999/xlink" x="0px" y="0px"
	 viewBox="0 0 841.9 595.3" style="enable-background:new 0 0 841.9 595.3;" xml:space="preserve">
<style type="text/css">
	.st0{fill:#17224D;}
	.st1{fill:url(#SVGID_1_);}
	.st2{fill:#0A1435;}
	.st3{fill:#FFFFFF;}
	.st4{fill:url(#SVGID_2_);}
</style>
<rect class="st2" width="841.9" height="595.3"/>
<g>
	<linearGradient id="SVGID_1_" gradientUnits="userSpaceOnUse" x1="104.2297" y1="299.9583" x2="216.2661" y2="299.9583">
		<stop  offset="0" style="stop-color:#027FFF"/>
		<stop  offset="0.1171" style="stop-color:#0692F9"/>
		<stop  offset="0.3775" style="stop-color:#0EB7EE"/>
		<stop  offset="0.6197" style="stop-color:#14D2E6"/>
		<stop  offset="0.8346" style="stop-color:#18E2E2"/>
		<stop  offset="1" style="stop-color:#19E8E0"/>
	</linearGradient>
	<path class="st1" d="M178.8,246.2c0,0-6-0.8-9.1,2.1l-12.3,12.3c0,0-0.1,0.1-0.1,0.1l-11.9,11.9l-2.9,2.9c-1.4,0.3-2.8-0.5-3.3-1.8
		v-3.7v-6.3v-11.1c0-4.8-4-8.8-8.8-8.8H113c-4.8,0-8.8,4-8.8,8.8v17.4c0,4.8,4,8.8,8.8,8.8h10.5h6.9h4.2c1.1,0.7,1.7,2,1.3,3.3
		l-29,29l0,0c-1.6,1.6-2.6,3.8-2.6,6.3v12.3v5v12.3c0,4.8,4,8.8,8.8,8.8h17.4c4.8,0,8.8-4,8.8-8.8v-8.7v-3.6v-5v-12.3v-3.6v-3.1
		v-25.9c0.5-3.1,2.9-5.5,6.1-5.9h0.1h17.4c10,0,18.4,8.3,18.4,18.3v44.5h0v5.5c0,4.8,4,8.8,8.8,8.8h17.4c4.8,0,8.8-4,8.8-8.8v-5.5
		v-1.9v-9.9v-16v-16.7C216.3,268.4,197.2,248.1,178.8,246.2z"/>
	<path class="st3" d="M317.9,252.1c9.3,5.7,16.4,13.4,20.9,23l-24.2,9c-5.5-10.2-15.7-16.7-28.2-16.7c-9,0-16.5,3.1-22.7,9.6
		c-6.1,6.3-9.1,14.2-9.1,23.6s3,17.3,9.1,23.8c6.1,6.3,13.7,9.4,22.7,9.4c12.4,0,22.7-6.5,28.2-16.7l24.2,9
		c-4.6,9.6-11.6,17.3-20.9,23.1c-9.3,5.7-19.8,8.5-31.5,8.5c-16.5,0-30.2-5.5-41.2-16.4c-11-10.9-16.5-24.6-16.5-40.8
		s5.5-29.9,16.5-40.8c11-10.9,24.7-16.4,41.2-16.4C298.2,243.4,308.6,246.2,317.9,252.1z"/>
	<path class="st3" d="M341.5,314.7c0-12.1,4.1-22.4,12.4-30.5c8.3-8.3,18.9-12.4,31.3-12.4c12.4,0,22.8,4.1,31.2,12.4
		c8.3,8.2,12.6,18.4,12.6,30.5c0,12.1-4.3,22.4-12.6,30.7c-8.3,8.2-18.7,12.3-31.2,12.3c-12.4,0-23-4.1-31.3-12.3
		C345.5,337.1,341.5,326.8,341.5,314.7z M398.8,328.7c3.8-3.9,5.7-8.5,5.7-14s-1.9-10.1-5.7-13.9c-3.6-3.9-8.2-5.8-13.5-5.8
		c-5.5,0-10.1,1.9-13.7,5.7c-3.6,3.8-5.5,8.5-5.5,14s1.9,10.2,5.5,14c3.6,3.8,8.2,5.7,13.7,5.7C390.6,334.4,395.1,332.5,398.8,328.7
		z"/>
	<path class="st3" d="M433.7,273.8h23.6v8.3c5.5-6.9,12.9-10.4,22.4-10.4c8.8,0,16.2,3,22.2,9c6.1,6,9.1,13.4,9.1,22.4v52.6h-23.6
		v-46.3c0-9-6.3-15.7-15-15.7s-15.1,6.8-15.1,15.7v46.3h-23.6V273.8z"/>
	<path class="st3" d="M514,273.8h11.2v-15.9h23.6v15.9h18.6v20.5h-18.6V325c0,5,3.8,8.7,9,8.7h9.6v22h-13.5c-8,0-15-2.5-20.5-7.4
		c-5.5-5-8.2-11.3-8.2-18.7v-35.3H514V273.8z"/>
	<path class="st3" d="M596.7,282.3c5.5-7.1,13.9-10.5,25-10.5v25.2c-2.2-1.4-5-2.2-8.5-2.2c-9.4,0-16.5,7.2-16.5,16.8v44.1h-23.6
		v-81.9h23.6V282.3z"/>
	<path class="st3" d="M621.7,314.7c0-12.1,4.1-22.4,12.4-30.5c8.3-8.3,18.9-12.4,31.3-12.4s22.8,4.1,31.2,12.4
		c8.3,8.2,12.6,18.4,12.6,30.5c0,12.1-4.2,22.4-12.6,30.7c-8.3,8.2-18.7,12.3-31.2,12.3s-23-4.1-31.3-12.3
		C625.8,337.1,621.7,326.8,621.7,314.7z M679,328.7c3.8-3.9,5.7-8.5,5.7-14s-1.9-10.1-5.7-13.9c-3.6-3.9-8.2-5.8-13.5-5.8
		c-5.5,0-10.1,1.9-13.7,5.7s-5.5,8.5-5.5,14s1.9,10.2,5.5,14s8.2,5.7,13.7,5.7C670.8,334.4,675.4,332.5,679,328.7z"/>
	<path class="st3" d="M714,355.6V237.6h23.6v118.1H714z"/>
</g>
</svg>
